<svg width="10" height="16" viewBox="0 0 10 16" fill="none" xmlns="http://www.w3.org/2000/svg">
<g id="Group 1">
<path id="U" d="M4.968 13.208C4.328 13.208 3.78933 13.1227 3.352 12.952C2.92533 12.7707 2.584 12.5147 2.328 12.184C2.072 11.8533 1.89067 11.4533 1.784 10.984C1.67733 10.5147 1.624 9.992 1.624 9.416V3.096H3.608V9.288C3.608 9.704 3.62933 10.056 3.672 10.344C3.71467 10.6213 3.784 10.8453 3.88 11.016C3.98667 11.1867 4.13067 11.3093 4.312 11.384C4.49333 11.4587 4.72267 11.496 5 11.496C5.27733 11.496 5.50667 11.4587 5.688 11.384C5.86933 11.3093 6.01333 11.1867 6.12 11.016C6.22667 10.8347 6.30133 10.6053 6.344 10.328C6.38667 10.04 6.408 9.688 6.408 9.272V3.096H8.376V9.416C8.376 9.992 8.32267 10.5147 8.216 10.984C8.10933 11.4533 7.92267 11.8533 7.656 12.184C7.38933 12.5147 7.03733 12.7707 6.6 12.952C6.16267 13.1227 5.61867 13.208 4.968 13.208Z" fill="black"/>
<line id="Line 1" y1="14.5" x2="10" y2="14.5" stroke="black"/>
</g>
</svg>
